<svg xmlns="http://www.w3.org/2000/svg" viewBox="0 0 48 48" id="GraduationCap"><g data-name="Graduation Cap" fill="#000000" class="color000000 svgShape"><path fill="#375a68" d="M47,15,24,27,1,15,24,3Z" class="color374f68 svgShape"></path><path fill="#426472" d="M44.63,13.76c-5.35,2.79-8.3,4.63-13.23,5.68l-7.92-4.32a1,1,0,0,0-1,1.76L28.17,20c-10.48,1.1-16.78-3.06-23.8-6.72L24,3Z" class="color425b72 svgShape"></path><path fill="#264653" d="M38,19.7c0,10.17.29,10.12-.94,11.47C31.44,37.37,10,35.56,10,29V19.7c4,2.07,1.18.61,14,7.3Z" class="color2c435e svgShape"></path><path fill="#375a68" d="M24 29l9-4.69v8.11c-9 1.84-20-.91-20-5.42V23.26zM38 21.7c0 8.84.68 9.13-3 10.22V23.26z" class="color374f68 svgShape"></path><path fill="#e9c46a" d="M34,40V21.59L23.52,15.88a1,1,0,0,1,1-1.76l11,6c.74.41.52-.6.52,19.88A1,1,0,0,1,34,40Z" class="colorffcc66 svgShape"></path><path fill="#e9c46a" d="M37,41v4H33V41a2,2,0,0,1,4,0Z" class="colorffcc66 svgShape"></path><path fill="#ffd776" d="M37,41v3a3,3,0,0,1-3-3,4.1,4.1,0,0,1,.18-1.82A2,2,0,0,1,37,41Z" class="colorffde76 svgShape"></path></g></svg>